<svg version="1" xmlns="http://www.w3.org/2000/svg" width="682.667" height="682.667" viewBox="0 0 512.000000 512.000000"><path d="M40 256.5V338h433V175H40v81.5zm428 0V333H45V180h423v76.5z"/><path d="M363.5 204.4c-5.3 2.3-5.5 3.7-5.5 41 0 32.9.1 34.4 2 36.9 2.9 3.7 8.3 5.2 13.1 3.8 7-2.1 6.9-1.4 6.9-40.9 0-22.3-.4-36-1-37.3-2.4-4.4-9.7-6-15.5-3.5zm8.9 7.2c.3.9.6 16.1.6 33.9 0 34.5-.1 35.5-5 34-2-.6-2-1.2-2-34.4 0-18.6.3-34.1.7-34.4 1.2-1.3 5.1-.7 5.7.9zm-8.9 68.4c.3.5.1 1-.4 1-.6 0-1.1-.5-1.1-1 0-.6.2-1 .4-1 .3 0 .8.4 1.1 1zM398.5 203.9c-4.6 2-6 4.9-5.9 12.5.2 8.8 2.2 16.6 8 30.7 3 7.4 4.9 13.8 5.6 19.3 1.4 10.1.7 13.6-2.6 13.6-3.1 0-3.6-1.5-3.6-12 0-9.5-.9-11.4-5.2-10.8-2.3.3-2.3.5-2.3 11.9 0 13.1.7 14.8 7.2 17 7.6 2.5 15.3-3 15.3-10.7 0-7.4-3.3-20.9-7.9-32.5-5.1-12.6-7.5-22.9-6.9-29 .3-3.1.6-3.4 3.8-3.5l3.5-.1v21.2h7v-11.2c0-10.8-.1-11.4-2.6-13.9-2.9-2.8-9.7-4.1-13.4-2.5zM105.2 204.8c-.9.7-1.2 9.5-1 40.8l.3 39.9h7l.3-40.8.2-40.7h-2.7c-1.6 0-3.4.4-4.1.8zM124 204.4c-.3.2-.4 18.7-.2 41l.2 40.6h2.3c4.6 0 4.6.2 9.4-28.3.9-5.3 2-9.7 2.4-9.7.4 0 .5 8 .2 17.8-.5 19.3-.2 20.7 4.9 20l2.3-.3.3-40.8.2-40.7h-2.9c-1.6 0-3.3.6-3.8 1.2-.5.7-1.9 7.6-3.1 15.3-5 31.1-4.6 30.7-5.2 6l-.5-22-3-.3c-1.7-.2-3.3-.1-3.5.2zM158.5 205.3c-.3.6-.4 19-.3 40.7l.3 39.5 2.6.3c1.4.2 3.1-.3 3.7-1.1.7-.9 1.2-7.6 1.4-18.8l.3-17.4 4-.5c3.5-.4 4-.9 4.3-3.3.3-2.6.2-2.7-4.2-2.7h-4.5l-.3-6.8c-.2-3.7-.2-10.6 0-15.5l.3-8.7h3.8c4.3 0 6.1-1.4 6.1-4.7 0-2.2-.3-2.3-8.5-2.3-5.9 0-8.7.4-9 1.3zM187.2 205.2c-.9.9-1.2 11.3-1.2 40.5V285l2.5.6c5.7 1.4 5.5 3 5.5-41.1V204h-2.8c-1.5 0-3.3.5-4 1.2zM206.2 244.7l.3 40.8 8.3.3c6.9.2 8.3 0 8.9-1.4 1.1-2.8-1.1-4.9-5.6-5.2l-4.1-.3v-36.3c0-26.8-.3-36.5-1.2-37.4-.7-.7-2.5-1.2-4-1.2H206l.2 40.7zM212 267c0 .5-.4 1-1 1-.5 0-1-.5-1-1 0-.6.5-1 1-1 .6 0 1 .4 1 1zM227 206.3c0 2.8 1.7 4.7 4.5 4.7 2 0 2 .3 1.7 36.1-.3 38.7-.2 39.3 4.7 38.7l2.6-.3.3-37 .2-37.1 3.3-.9c2.5-.8 3.2-1.5 3.2-3.5 0-2.5-.1-2.5-10.2-2.8-10.2-.3-10.3-.2-10.3 2.1zM258.2 244.6l.3 40.9 2.7.3c3.9.5 5-2.4 4.8-13.1-.1-5.1-.1-11.8-.1-15 .1-5.7.1-5.7 3.1-5.7 1.7 0 3 .5 3 1.2.1.7.1 7.7 0 15.4-.1 15.3.6 17.4 5.4 17.4 2.2 0 2.2-.1 2.4-17.1.2-14.3 0-17.5-1.3-18.9-1.4-1.5-1.4-1.9-.1-3 1.3-1 1.5-4.4 1.5-19.1 0-17.4-.1-18-2.4-20.7-2.1-2.5-3-2.7-10.9-3.1l-8.6-.3.2 40.8zm13.9-32.4c.3 6.3-.1 31.1-.6 31.8-.3.6-1.7 1-3.1 1-2.3 0-2.4-.2-2.4-7 0-6.3-.2-7-2-7-1.1 0-2-.5-2-1 0-.6.9-1 2-1 1.9 0 2-.7 2-9v-9h3c1.7 0 3 .5 3.1 1.2zm3.9 3.8c0 .5-.5 1-1.1 1-.5 0-.7-.5-.4-1 .3-.6.8-1 1.1-1 .2 0 .4.4.4 1zm3 24c0 1.2-2.8 2.5-3.6 1.7-.9-.9.6-2.7 2.2-2.7.8 0 1.4.5 1.4 1zM297.5 207.9c-.4 2.2-.4 4.5 0 5.1.4.6.2 2.3-.3 3.8-.6 1.5-1.3 6.5-1.6 11.2-.3 4.7-1.5 19.2-2.8 32.3-2.3 25.3-2.2 26.5 2.5 25.3 2.7-.7 3.7-3 3.7-9.4 0-4 .1-4.2 3-4.2 2.4 0 3 .4 3.1 2.2.5 9.4 1.6 11.8 5.7 11.8h2.5l-.6-10.8c-.6-9.1-2.6-33.3-5.5-63.2l-.7-7.5-4.2-.3c-4.1-.3-4.1-.3-4.8 3.7zm6.7 47.8l.5 9.3h-5l.7-14.3c.4-7.8 1-16.2 1.4-18.7.6-4 .7-3.4 1.3 5 .4 5.2.9 13.7 1.1 18.7zm5.8 1.8c0 .8-.4 1.5-1 1.5-.5 0-1-.7-1-1.5s.5-1.5 1-1.5c.6 0 1 .7 1 1.5zM324.2 244.7l.3 40.8 6.2.3c8.2.4 12.9-1.6 14.9-6.3 1.2-3 1.5-9.1 1.3-35-.1-34.2-.4-36.5-5.9-39.2-3.2-1.6-9.2-1.7-10.9-.1-1.1 1-1.4 1-1.8 0-.3-.6-1.3-1.2-2.4-1.2-1.9 0-1.9 1.1-1.7 40.7zm14.2-32.1c.3.9.6 15.4.6 32.4s-.3 31.5-.6 32.4c-.4 1-1.8 1.6-3.5 1.6H332v-68h2.9c1.7 0 3.1.6 3.5 1.6zm6.6 9c0 .8-.4 1.2-1 .9-.5-.3-1-1-1-1.6 0-.5.5-.9 1-.9.6 0 1 .7 1 1.6zM83.7 240.8c-3.5 3.9-.9 10.2 4.2 10.2 5.5 0 8.6-5.1 5.6-9.6-1.9-3-7.4-3.3-9.8-.6zM422.7 240.8c-5.5 6.1 3.5 14 9.3 8.2 2.4-2.4 2.5-4.8.4-7.8-1.9-2.8-7.4-3-9.7-.4zM176.3 303.7c-2.2.8-1.5 5.8 1.2 8.3 2.7 2.6 3.3 5 1.1 5-.7 0-1.6-1-2-2.2-.4-1.8-.8-2-1.7-1.1-1.8 1.8.4 6.3 3 6.3 2 0 5.1-2.4 5.1-4 0-.5-1.3-2.5-3-4.3-3.3-3.8-3.8-5.7-1.5-5.7.8 0 1.5.7 1.5 1.5s.5 1.5 1 1.5c1.4 0 1.3-3.3-.2-4.8-1.3-1.3-2.4-1.4-4.5-.5zM194 304.5c0 .8.7 1.5 1.5 1.5 1.2 0 1.5 1.4 1.5 6.5 0 3.7.4 6.5 1 6.5s1-2.8 1-6.5c0-5.1.3-6.5 1.5-6.5.8 0 1.5-.7 1.5-1.5 0-1.1-1.1-1.5-4-1.5s-4 .4-4 1.5zM214.4 304.3c-.3.8-.4 4.5-.2 8.3l.3 6.9h3.3c3.7 0 4.8-1.8 1.5-2.3-3.1-.5-3.3-5.2-.3-5.2 1.1 0 2-.5 2-1 0-.6-.9-1-2-1-2.9 0-2.7-3.8.3-4.2 3.3-.5 2.7-2.3-1.1-2.6-2.1-.2-3.4.2-3.8 1.1zM236.2 304.6c-.5 1.1-1.2 3.7-1.6 5.9-.4 2.2-.9 5.2-1.2 6.7-.7 3.3 1.3 3.8 2.5.7l.8-2.2 2.1 2.3c1.2 1.3 2.4 2.1 2.7 1.8.8-.7-2.2-14.9-3.4-16.1-.6-.6-1.3-.2-1.9.9zm1.4 9.1c-1.1 1.1-1.7-.4-.9-2.3.7-1.8.8-1.8 1.1-.1.2 1 .1 2.1-.2 2.4zM254 311.5c0 5 .4 8.5 1 8.5s1-1.6 1-3.5c0-4.3 1.6-4.6 2.5-.5.7 3 2.1 4.7 3.2 3.7.3-.3-.3-2.7-1.3-5.2-1.7-4.5-1.7-4.8 0-7.7 2.4-4 1-5-2-1.3l-2.4 3v-2.8c0-1.5-.4-2.7-1-2.7s-1 3.5-1 8.5zM291.7 303.7c-.4.3-.7 4.2-.7 8.5v7.8h2.9c4 0 4.9-1.6 4.9-8.8 0-5-.4-6.4-1.8-7.2-2.2-1.2-4.4-1.3-5.3-.3zm4.3 4.3c0 1.1-.7 2-1.5 2s-1.5-.9-1.5-2 .7-2 1.5-2 1.5.9 1.5 2zm.8 6.8c.3 1.7-.2 2.2-1.7 2.2-1.4 0-2.1-.6-2.1-1.8 0-3.8 3.3-4.1 3.8-.4zM314.7 303.7c-.8 1.2-3.7 12.8-3.7 14.7 0 .9.5 1.6 1 1.6.6 0 1-.7 1-1.5 0-2.1 3-1.9 4.6.2 2.2 3.1 2.5.8.8-6.8-1.7-7.4-2.7-9.8-3.7-8.2zm1.3 8.3c0 1.1-.4 2-.9 2s-.7-.9-.4-2c.3-1.1.7-2 .9-2 .2 0 .4.9.4 2zM332 311.5c0 8.5 1.6 11.8 2.2 4.7l.4-3.7 1.7 3.7c1.9 4.1 4.4 5.3 3.2 1.5-.9-2.7-.9-5.3 0-8.8.8-3.2-1.5-5.9-5.1-5.9-2.4 0-2.4.2-2.4 8.5zm5-3.5c0 1.1-.7 2-1.5 2s-1.5-.9-1.5-2 .7-2 1.5-2 1.5.9 1.5 2zM82 310.5v2.5h82v-5H82v2.5zM352 310.5v2.5h81v-5h-81v2.5zM274 313c0 .5 1.1 1 2.5 1s2.5-.5 2.5-1c0-.6-1.1-1-2.5-1s-2.5.4-2.5 1z"/></svg>